<svg width="32" height="33" viewBox="0 0 32 33" fill="none" xmlns="http://www.w3.org/2000/svg">
<path d="M14.666 23.375H17.3327V17.875H22.666V15.125H17.3327V9.625H14.666V15.125H9.33268V17.875H14.666V23.375ZM15.9993 30.25C14.1549 30.25 12.4216 29.8948 10.7993 29.1844C9.17713 28.451 7.76602 27.4656 6.56602 26.2281C5.36602 24.9906 4.41046 23.5354 3.69935 21.8625C3.01046 20.1896 2.66602 18.4021 2.66602 16.5C2.66602 14.5979 3.01046 12.8104 3.69935 11.1375C4.41046 9.46458 5.36602 8.00937 6.56602 6.77187C7.76602 5.53437 9.17713 4.56042 10.7993 3.85C12.4216 3.11667 14.1549 2.75 15.9993 2.75C17.8438 2.75 19.5771 3.11667 21.1994 3.85C22.8216 4.56042 24.2327 5.53437 25.4327 6.77187C26.6327 8.00937 27.5771 9.46458 28.266 11.1375C28.9771 12.8104 29.3327 14.5979 29.3327 16.5C29.3327 18.4021 28.9771 20.1896 28.266 21.8625C27.5771 23.5354 26.6327 24.9906 25.4327 26.2281C24.2327 27.4656 22.8216 28.451 21.1994 29.1844C19.5771 29.8948 17.8438 30.25 15.9993 30.25ZM15.9993 27.5C18.9771 27.5 21.4994 26.4344 23.566 24.3031C25.6327 22.1719 26.666 19.5708 26.666 16.5C26.666 13.4292 25.6327 10.8281 23.566 8.69687C21.4994 6.56562 18.9771 5.5 15.9993 5.5C13.0216 5.5 10.4993 6.56562 8.43268 8.69687C6.36602 10.8281 5.33268 13.4292 5.33268 16.5C5.33268 19.5708 6.36602 22.1719 8.43268 24.3031C10.4993 26.4344 13.0216 27.5 15.9993 27.5Z" fill="#1D1B20"/>
</svg>
