<svg width="22" height="22" viewBox="0 0 22 22" fill="none" xmlns="http://www.w3.org/2000/svg">
<path d="M5.5 5.08398V11.9173H9.4653C9.766 11.9173 9.91636 11.9173 10.0372 11.992C10.158 12.0667 10.2252 12.2011 10.3597 12.4701L10.7236 13.1979C10.8581 13.4668 10.9253 13.6013 11.0462 13.676C11.167 13.7507 11.3173 13.7507 11.618 13.7507H16C16.2357 13.7507 16.3536 13.7507 16.4268 13.6774C16.5 13.6042 16.5 13.4864 16.5 13.2506V6.91732C16.5 6.68162 16.5 6.56376 16.4268 6.49054C16.3536 6.41732 16.2357 6.41732 16 6.41732H11.618C11.3173 6.41732 11.167 6.41732 11.0462 6.34264C10.9253 6.26797 10.8581 6.13349 10.7236 5.86453L10.3597 5.13677L10.3597 5.13677C10.2252 4.86781 10.158 4.73333 10.0372 4.65866C9.91636 4.58398 9.766 4.58398 9.4653 4.58398H6C5.7643 4.58398 5.64645 4.58398 5.57322 4.65721C5.5 4.73043 5.5 4.84828 5.5 5.08398Z" fill="#222222"/>
<path d="M5.5 11.9173V5.08398C5.5 4.84828 5.5 4.73043 5.57322 4.65721C5.64645 4.58398 5.7643 4.58398 6 4.58398H9.4653C9.766 4.58398 9.91636 4.58398 10.0372 4.65866C10.158 4.73333 10.2252 4.86781 10.3597 5.13677L10.7236 5.86453C10.8581 6.13349 10.9253 6.26797 11.0462 6.34264C11.167 6.41732 11.3173 6.41732 11.618 6.41732H16C16.2357 6.41732 16.3536 6.41732 16.4268 6.49054C16.5 6.56376 16.5 6.68162 16.5 6.91732V13.2506C16.5 13.4864 16.5 13.6042 16.4268 13.6774C16.3536 13.7507 16.2357 13.7507 16 13.7507H11.618C11.3173 13.7507 11.167 13.7507 11.0462 13.676C10.9253 13.6013 10.8581 13.4668 10.7236 13.1979L10.3597 12.4701C10.2252 12.2011 10.158 12.0667 10.0372 11.992C9.91636 11.9173 9.766 11.9173 9.4653 11.9173H5.5ZM5.5 11.9173V17.4173" stroke="#222222" stroke-width="2" stroke-linecap="round"/>
</svg>
