<svg width="22" height="22" viewBox="0 0 22 22" fill="none" xmlns="http://www.w3.org/2000/svg">
<path d="M16.5 20.1663C15.7361 20.1663 15.0868 19.899 14.5521 19.3643C14.0174 18.8295 13.75 18.1802 13.75 17.4163C13.75 17.3094 13.7576 17.1986 13.7729 17.084C13.7882 16.9695 13.8111 16.8663 13.8417 16.7747L7.37917 13.0163C7.11944 13.2455 6.82917 13.425 6.50833 13.5549C6.1875 13.6847 5.85139 13.7497 5.5 13.7497C4.73611 13.7497 4.08681 13.4823 3.55208 12.9476C3.01736 12.4129 2.75 11.7636 2.75 10.9997C2.75 10.2358 3.01736 9.58648 3.55208 9.05176C4.08681 8.51704 4.73611 8.24967 5.5 8.24967C5.85139 8.24967 6.1875 8.3146 6.50833 8.44447C6.82917 8.57433 7.11944 8.75384 7.37917 8.98301L13.8417 5.22467C13.8111 5.13301 13.7882 5.02988 13.7729 4.9153C13.7576 4.80072 13.75 4.68995 13.75 4.58301C13.75 3.81912 14.0174 3.16981 14.5521 2.63509C15.0868 2.10037 15.7361 1.83301 16.5 1.83301C17.2639 1.83301 17.9132 2.10037 18.4479 2.63509C18.9826 3.16981 19.25 3.81912 19.25 4.58301C19.25 5.3469 18.9826 5.9962 18.4479 6.53092C17.9132 7.06565 17.2639 7.33301 16.5 7.33301C16.1486 7.33301 15.8125 7.26808 15.4917 7.13822C15.1708 7.00835 14.8806 6.82884 14.6208 6.59967L8.15833 10.358C8.18889 10.4497 8.21181 10.5528 8.22708 10.6674C8.24236 10.782 8.25 10.8927 8.25 10.9997C8.25 11.1066 8.24236 11.2174 8.22708 11.332C8.21181 11.4465 8.18889 11.5497 8.15833 11.6413L14.6208 15.3997C14.8806 15.1705 15.1708 14.991 15.4917 14.8611C15.8125 14.7313 16.1486 14.6663 16.5 14.6663C17.2639 14.6663 17.9132 14.9337 18.4479 15.4684C18.9826 16.0031 19.25 16.6525 19.25 17.4163C19.25 18.1802 18.9826 18.8295 18.4479 19.3643C17.9132 19.899 17.2639 20.1663 16.5 20.1663ZM16.5 5.49967C16.7597 5.49967 16.9774 5.41183 17.1531 5.23613C17.3288 5.06044 17.4167 4.84273 17.4167 4.58301C17.4167 4.32329 17.3288 4.10558 17.1531 3.92988C16.9774 3.75419 16.7597 3.66634 16.5 3.66634C16.2403 3.66634 16.0226 3.75419 15.8469 3.92988C15.6712 4.10558 15.5833 4.32329 15.5833 4.58301C15.5833 4.84273 15.6712 5.06044 15.8469 5.23613C16.0226 5.41183 16.2403 5.49967 16.5 5.49967ZM5.5 11.9163C5.75972 11.9163 5.97743 11.8285 6.15313 11.6528C6.32882 11.4771 6.41667 11.2594 6.41667 10.9997C6.41667 10.74 6.32882 10.5222 6.15313 10.3465C5.97743 10.1709 5.75972 10.083 5.5 10.083C5.24028 10.083 5.02257 10.1709 4.84688 10.3465C4.67118 10.5222 4.58333 10.74 4.58333 10.9997C4.58333 11.2594 4.67118 11.4771 4.84688 11.6528C5.02257 11.8285 5.24028 11.9163 5.5 11.9163ZM16.5 18.333C16.7597 18.333 16.9774 18.2452 17.1531 18.0695C17.3288 17.8938 17.4167 17.6761 17.4167 17.4163C17.4167 17.1566 17.3288 16.9389 17.1531 16.7632C16.9774 16.5875 16.7597 16.4997 16.5 16.4997C16.2403 16.4997 16.0226 16.5875 15.8469 16.7632C15.6712 16.9389 15.5833 17.1566 15.5833 17.4163C15.5833 17.6761 15.6712 17.8938 15.8469 18.0695C16.0226 18.2452 16.2403 18.333 16.5 18.333Z" fill="#1D1B20"/>
</svg>
