<svg width="46" height="46" viewBox="0 0 46 46" fill="none" xmlns="http://www.w3.org/2000/svg">
<circle cx="23" cy="23" r="23" fill="#1B8271"/>
<path d="M12.7081 32H8.92969L13.8374 17.4545H18.5178L23.4254 32H19.647L16.2308 21.1193H16.1172L12.7081 32ZM12.2038 26.2756H20.1016V28.946H12.2038V26.2756ZM33.8533 22.206C33.7728 21.9077 33.6545 21.6449 33.4982 21.4176C33.342 21.1856 33.1502 20.9891 32.9229 20.8281C32.6957 20.6671 32.4353 20.5464 32.1417 20.4659C31.8481 20.3807 31.5262 20.3381 31.1758 20.3381C30.4703 20.3381 29.8595 20.5085 29.3434 20.8494C28.832 21.1903 28.4367 21.6875 28.1573 22.3409C27.878 22.9896 27.7383 23.7779 27.7383 24.706C27.7383 25.6387 27.8732 26.4342 28.1431 27.0923C28.413 27.7505 28.8036 28.2524 29.315 28.598C29.8263 28.9437 30.4466 29.1165 31.1758 29.1165C31.8197 29.1165 32.3642 29.0123 32.8093 28.804C33.2591 28.5909 33.6 28.2902 33.832 27.902C34.064 27.5137 34.18 27.0568 34.18 26.5312L34.8335 26.6094H31.2965V24.0455H37.5678V25.9702C37.5678 27.2723 37.2908 28.3873 36.7369 29.3153C36.1876 30.2434 35.43 30.956 34.4641 31.4531C33.503 31.9503 32.3974 32.1989 31.1474 32.1989C29.7601 32.1989 28.5408 31.8982 27.4897 31.2969C26.4386 30.6955 25.6194 29.8385 25.0323 28.7259C24.4452 27.6084 24.1516 26.2827 24.1516 24.7486C24.1516 23.5554 24.3292 22.4972 24.6843 21.5739C25.0394 20.6458 25.5342 19.8598 26.1687 19.2159C26.8079 18.572 27.5465 18.0843 28.3846 17.7528C29.2274 17.4214 30.1341 17.2557 31.1048 17.2557C31.9476 17.2557 32.7312 17.3764 33.4556 17.6179C34.1848 17.8594 34.8287 18.2003 35.3874 18.6406C35.9509 19.081 36.4078 19.6042 36.7582 20.2102C37.1085 20.8163 37.3263 21.4815 37.4116 22.206H33.8533Z" fill="white"/>
</svg>
