<svg width="56" height="56" viewBox="0 0 56 56" fill="none" xmlns="http://www.w3.org/2000/svg">
<circle cx="28" cy="28" r="28" fill="#1B8271"/>
<path d="M17.8763 35.2617H14.0979L19.0056 20.7163H23.686L28.5937 35.2617H24.8152L21.399 24.381H21.2854L17.8763 35.2617ZM17.3721 29.5373H25.2698V32.2077H17.3721V29.5373ZM42.6792 25.9862H39.1281C39.0807 25.6216 38.9837 25.2925 38.8369 24.9989C38.6901 24.7054 38.496 24.4544 38.2545 24.2461C38.013 24.0378 37.7266 23.8791 37.3951 23.7702C37.0684 23.6566 36.7062 23.5998 36.3085 23.5998C35.603 23.5998 34.9946 23.7726 34.4832 24.1183C33.9766 24.4639 33.586 24.9634 33.3113 25.6168C33.0414 26.2702 32.9065 27.061 32.9065 27.989C32.9065 28.9549 33.0438 29.7646 33.3184 30.418C33.5978 31.0666 33.9884 31.5567 34.4903 31.8881C34.9969 32.2148 35.5959 32.3782 36.2872 32.3782C36.6754 32.3782 37.0282 32.3285 37.3454 32.229C37.6674 32.1296 37.9491 31.9852 38.1906 31.7958C38.4368 31.6017 38.638 31.3673 38.7943 31.0927C38.9553 30.8133 39.0665 30.4985 39.1281 30.1481L42.6792 30.1694C42.6177 30.8133 42.4307 31.4478 42.1182 32.0728C41.8104 32.6978 41.3866 33.2683 40.8468 33.7844C40.3071 34.2958 39.6489 34.703 38.8724 35.006C38.1006 35.3091 37.2152 35.4606 36.2162 35.4606C34.8999 35.4606 33.7209 35.1718 32.6792 34.5941C31.6423 34.0117 30.8232 33.1642 30.2218 32.0515C29.6205 30.9388 29.3199 29.5846 29.3199 27.989C29.3199 26.3886 29.6253 25.0321 30.2361 23.9194C30.8468 22.8067 31.6731 21.9615 32.7147 21.3839C33.7564 20.8062 34.9236 20.5174 36.2162 20.5174C37.0968 20.5174 37.9112 20.6405 38.6593 20.8867C39.4075 21.1282 40.0656 21.4833 40.6338 21.9521C41.202 22.4161 41.6636 22.9866 42.0187 23.6637C42.3738 24.3408 42.594 25.1149 42.6792 25.9862Z" fill="white"/>
</svg>
