<svg width="18" height="20" viewBox="0 0 18 20" fill="none" xmlns="http://www.w3.org/2000/svg">
<path d="M14.5 19.1673C13.7361 19.1673 13.0868 18.9 12.5521 18.3652C12.0174 17.8305 11.75 17.1812 11.75 16.4173C11.75 16.3104 11.7576 16.1996 11.7729 16.085C11.7882 15.9704 11.8111 15.8673 11.8417 15.7757L5.37917 12.0173C5.11944 12.2465 4.82917 12.426 4.50833 12.5559C4.1875 12.6857 3.85139 12.7507 3.5 12.7507C2.73611 12.7507 2.08681 12.4833 1.55208 11.9486C1.01736 11.4138 0.75 10.7645 0.75 10.0007C0.75 9.23676 1.01736 8.58746 1.55208 8.05273C2.08681 7.51801 2.73611 7.25065 3.5 7.25065C3.85139 7.25065 4.1875 7.31558 4.50833 7.44544C4.82917 7.5753 5.11944 7.75482 5.37917 7.98398L11.8417 4.22565C11.8111 4.13398 11.7882 4.03086 11.7729 3.91628C11.7576 3.80169 11.75 3.69093 11.75 3.58398C11.75 2.8201 12.0174 2.17079 12.5521 1.63607C13.0868 1.10135 13.7361 0.833984 14.5 0.833984C15.2639 0.833984 15.9132 1.10135 16.4479 1.63607C16.9826 2.17079 17.25 2.8201 17.25 3.58398C17.25 4.34787 16.9826 4.99718 16.4479 5.5319C15.9132 6.06662 15.2639 6.33398 14.5 6.33398C14.1486 6.33398 13.8125 6.26905 13.4917 6.13919C13.1708 6.00933 12.8806 5.82982 12.6208 5.60065L6.15833 9.35898C6.18889 9.45065 6.21181 9.55378 6.22708 9.66836C6.24236 9.78294 6.25 9.89371 6.25 10.0007C6.25 10.1076 6.24236 10.2184 6.22708 10.3329C6.21181 10.4475 6.18889 10.5507 6.15833 10.6423L12.6208 14.4007C12.8806 14.1715 13.1708 13.992 13.4917 13.8621C13.8125 13.7322 14.1486 13.6673 14.5 13.6673C15.2639 13.6673 15.9132 13.9347 16.4479 14.4694C16.9826 15.0041 17.25 15.6534 17.25 16.4173C17.25 17.1812 16.9826 17.8305 16.4479 18.3652C15.9132 18.9 15.2639 19.1673 14.5 19.1673ZM14.5 4.50065C14.7597 4.50065 14.9774 4.4128 15.1531 4.23711C15.3288 4.06141 15.4167 3.84371 15.4167 3.58398C15.4167 3.32426 15.3288 3.10655 15.1531 2.93086C14.9774 2.75516 14.7597 2.66732 14.5 2.66732C14.2403 2.66732 14.0226 2.75516 13.8469 2.93086C13.6712 3.10655 13.5833 3.32426 13.5833 3.58398C13.5833 3.84371 13.6712 4.06141 13.8469 4.23711C14.0226 4.4128 14.2403 4.50065 14.5 4.50065ZM3.5 10.9173C3.75972 10.9173 3.97743 10.8295 4.15313 10.6538C4.32882 10.4781 4.41667 10.2604 4.41667 10.0007C4.41667 9.74093 4.32882 9.52322 4.15313 9.34753C3.97743 9.17183 3.75972 9.08398 3.5 9.08398C3.24028 9.08398 3.02257 9.17183 2.84688 9.34753C2.67118 9.52322 2.58333 9.74093 2.58333 10.0007C2.58333 10.2604 2.67118 10.4781 2.84688 10.6538C3.02257 10.8295 3.24028 10.9173 3.5 10.9173ZM14.5 17.334C14.7597 17.334 14.9774 17.2461 15.1531 17.0704C15.3288 16.8947 15.4167 16.677 15.4167 16.4173C15.4167 16.1576 15.3288 15.9399 15.1531 15.7642C14.9774 15.5885 14.7597 15.5007 14.5 15.5007C14.2403 15.5007 14.0226 15.5885 13.8469 15.7642C13.6712 15.9399 13.5833 16.1576 13.5833 16.4173C13.5833 16.677 13.6712 16.8947 13.8469 17.0704C14.0226 17.2461 14.2403 17.334 14.5 17.334Z" fill="#1D1B20"/>
</svg>
