<svg width="46" height="46" viewBox="0 0 46 46" fill="none" xmlns="http://www.w3.org/2000/svg">
<circle cx="23" cy="23" r="22.5" fill="white" stroke="black"/>
<path d="M16.593 17.7531L12.9211 29.2667H9.52266L14.7863 15.048H16.9348L16.593 17.7531ZM19.6398 29.2667L15.9582 17.7531L15.5773 15.048H17.7551L23.0383 29.2667H19.6398ZM19.4836 23.9738V26.4347H12.0715V23.9738H19.4836ZM35.4797 21.757V27.4894C35.2453 27.7563 34.8872 28.0428 34.4055 28.3488C33.9302 28.6547 33.3215 28.9184 32.5793 29.1398C31.8371 29.3546 30.9517 29.462 29.923 29.462C28.9921 29.462 28.1457 29.3123 27.384 29.0128C26.6223 28.7068 25.968 28.2609 25.4211 27.6749C24.8742 27.0825 24.451 26.3598 24.1516 25.507C23.8586 24.6541 23.7121 23.6775 23.7121 22.5773V21.7374C23.7121 20.6372 23.8586 19.6606 24.1516 18.8077C24.4445 17.9549 24.8579 17.2355 25.3918 16.6495C25.9257 16.0571 26.5604 15.6079 27.2961 15.3019C28.0318 14.9959 28.8456 14.8429 29.7375 14.8429C31.007 14.8429 32.0454 15.048 32.8527 15.4581C33.66 15.8618 34.272 16.4217 34.6887 17.1378C35.1118 17.854 35.3723 18.6775 35.4699 19.6085H32.4035C32.3384 19.1333 32.2082 18.7231 32.0129 18.3781C31.8241 18.033 31.5539 17.7693 31.2023 17.587C30.8508 17.3982 30.3951 17.3038 29.8352 17.3038C29.3859 17.3038 28.979 17.3982 28.6145 17.587C28.2564 17.7693 27.9536 18.046 27.7063 18.4171C27.4589 18.7882 27.2701 19.2504 27.1398 19.8038C27.0096 20.3507 26.9445 20.9887 26.9445 21.7179V22.5773C26.9445 23.3064 27.0096 23.9477 27.1398 24.5011C27.2766 25.0545 27.4751 25.5167 27.7355 25.8878C27.996 26.2524 28.3247 26.5291 28.7219 26.7179C29.1255 26.9067 29.5943 27.0011 30.1281 27.0011C30.5448 27.0011 30.8964 26.9685 31.1828 26.9034C31.4693 26.8318 31.7036 26.7439 31.8859 26.6398C32.0682 26.5291 32.2049 26.4282 32.2961 26.337V23.9738H29.7668V21.757H35.4797Z" fill="#1B8271"/>
</svg>
