<svg width="22" height="22" viewBox="0 0 22 22" fill="none" xmlns="http://www.w3.org/2000/svg">
<g clip-path="url(#clip0_639_50891)">
<path d="M15.582 2.74963C15.8228 2.50887 16.1086 2.31789 16.4232 2.18759C16.7377 2.0573 17.0749 1.99023 17.4154 1.99023C17.7558 1.99023 18.093 2.0573 18.4076 2.18759C18.7221 2.31789 19.0079 2.50887 19.2487 2.74963C19.4895 2.99038 19.6804 3.2762 19.8107 3.59077C19.941 3.90533 20.0081 4.24248 20.0081 4.58296C20.0081 4.92344 19.941 5.26059 19.8107 5.57515C19.6804 5.88972 19.4895 6.17554 19.2487 6.41629L6.8737 18.7913L1.83203 20.1663L3.20703 15.1246L15.582 2.74963Z" stroke="#1E1E1E" stroke-width="2" stroke-linecap="round" stroke-linejoin="round"/>
</g>
<defs>
<clipPath id="clip0_639_50891">
<rect width="22" height="22" fill="white"/>
</clipPath>
</defs>
</svg>
