<svg width="20" height="20" viewBox="0 0 20 20" fill="none" xmlns="http://www.w3.org/2000/svg">
<path d="M7.49935 14.1673H5.83268C4.72761 14.1673 3.66781 13.7283 2.8864 12.9469C2.105 12.1655 1.66602 11.1057 1.66602 10.0007C1.66602 8.89558 2.105 7.83577 2.8864 7.05437C3.66781 6.27297 4.72761 5.83398 5.83268 5.83398H7.49935" stroke="black" stroke-opacity="0.4" stroke-width="3" stroke-linecap="round" stroke-linejoin="round"/>
<path d="M12.5 5.83398H14.1667C15.2717 5.83398 16.3315 6.27297 17.1129 7.05437C17.8943 7.83577 18.3333 8.89558 18.3333 10.0007C18.3333 11.1057 17.8943 12.1655 17.1129 12.9469C16.3315 13.7283 15.2717 14.1673 14.1667 14.1673H12.5" stroke="black" stroke-opacity="0.4" stroke-width="3" stroke-linecap="round" stroke-linejoin="round"/>
<path d="M6.66602 10H13.3327" stroke="black" stroke-opacity="0.4" stroke-width="3" stroke-linecap="round" stroke-linejoin="round"/>
</svg>
