<svg width="22" height="22" viewBox="0 0 22 22" fill="none" xmlns="http://www.w3.org/2000/svg">
<path fill-rule="evenodd" clip-rule="evenodd" d="M1.83203 6.41732C1.83203 6.16419 2.03723 5.95898 2.29036 5.95898H18.7904C19.0435 5.95898 19.2487 6.16419 19.2487 6.41732C19.2487 6.67045 19.0435 6.87565 18.7904 6.87565H2.29036C2.03723 6.87565 1.83203 6.67045 1.83203 6.41732Z" fill="black" stroke="black" stroke-miterlimit="90" stroke-linecap="round"/>
<path fill-rule="evenodd" clip-rule="evenodd" d="M14.7856 1.98571C14.955 1.79756 15.2448 1.78231 15.4329 1.95165L20.0162 6.07665C20.1128 6.16356 20.168 6.28739 20.168 6.41732C20.168 6.54725 20.1128 6.67108 20.0162 6.758L15.4329 10.883C15.2448 11.0523 14.955 11.0371 14.7856 10.8489C14.6163 10.6608 14.6315 10.371 14.8197 10.2016L19.0245 6.41732L14.8197 2.633C14.6315 2.46366 14.6163 2.17386 14.7856 1.98571Z" fill="black" stroke="black" stroke-miterlimit="1" stroke-linecap="round" stroke-linejoin="round"/>
<path fill-rule="evenodd" clip-rule="evenodd" d="M2.75 15.5833C2.75 15.3302 2.9552 15.125 3.20833 15.125H19.7083C19.9615 15.125 20.1667 15.3302 20.1667 15.5833C20.1667 15.8365 19.9615 16.0417 19.7083 16.0417H3.20833C2.9552 16.0417 2.75 15.8365 2.75 15.5833Z" fill="black" stroke="black" stroke-miterlimit="90" stroke-linecap="round"/>
<path fill-rule="evenodd" clip-rule="evenodd" d="M7.21437 11.1517C7.38371 11.3399 7.36846 11.6297 7.18031 11.799L2.9755 15.5833L7.18031 19.3677C7.36846 19.537 7.38371 19.8268 7.21437 20.0149C7.04504 20.2031 6.75524 20.2183 6.56709 20.049L1.98376 15.924C1.88718 15.8371 1.83203 15.7133 1.83203 15.5833C1.83203 15.4534 1.88718 15.3296 1.98376 15.2427L6.56709 11.1177C6.75524 10.9483 7.04504 10.9636 7.21437 11.1517Z" fill="black" stroke="black" stroke-miterlimit="1" stroke-linecap="round" stroke-linejoin="round"/>
</svg>
