<svg width="22" height="22" viewBox="0 0 22 22" fill="none" xmlns="http://www.w3.org/2000/svg">
<g clip-path="url(#clip0_639_50923)">
<path fill-rule="evenodd" clip-rule="evenodd" d="M15.9086 3.98998L3.99193 15.9066L3.34375 15.2585L15.2604 3.3418L15.9086 3.98998Z" fill="black" stroke="black" stroke-miterlimit="10"/>
<path fill-rule="evenodd" clip-rule="evenodd" d="M12.8108 1.95672C12.6506 1.79654 12.3816 1.79654 12.2214 1.95672L1.95477 12.2234C1.79459 12.3836 1.79459 12.6525 1.95477 12.8127L9.18727 20.0452C9.34744 20.2054 9.61641 20.2054 9.77659 20.0452L20.0433 9.77854C20.2005 9.62127 20.2072 9.35951 20.0407 9.1867L12.8108 1.95672ZM11.5733 1.30854C12.0914 0.790383 12.9408 0.790383 13.4589 1.30854L20.6958 8.54536C21.2058 9.06923 21.2119 9.90622 20.6914 10.4267L10.4248 20.6934C9.90661 21.2115 9.05724 21.2115 8.53909 20.6934L1.30659 13.4609C0.78843 12.9427 0.78843 12.0934 1.30659 11.5752L11.5733 1.30854Z" fill="black" stroke="black" stroke-miterlimit="10"/>
</g>
<defs>
<clipPath id="clip0_639_50923">
<rect width="22" height="22" fill="white"/>
</clipPath>
</defs>
</svg>
